<?xml version="1.0" encoding="UTF-8"?>
<svg xmlns="http://www.w3.org/2000/svg" xmlns:xlink="http://www.w3.org/1999/xlink" width="2000" height="2000" viewBox="0 0 2000 2000">


<path fill-rule="nonzero" fill="white" fill-opacity="1" d="M 390.378906 1039.980469 L 410.117188 1039.980469 C 430.78125 1039.980469 438.796875 1028.871094 438.796875 1009.140625 L 438.796875 970.589844 C 438.796875 950.851562 431.398438 939.441406 410.425781 939.441406 L 390.378906 939.441406 Z M 409.503906 1057.859375 L 390.378906 1057.859375 L 390.378906 1118 L 403.949219 1127.25 L 403.949219 1136.191406 L 345.355469 1136.191406 L 345.355469 1127.25 L 359.230469 1118 L 359.230469 937.28125 L 347.515625 929.261719 L 347.515625 920.320312 L 410.117188 920.320312 C 443.425781 920.320312 470.871094 932.960938 470.871094 970.589844 L 470.871094 1009.140625 C 470.871094 1047.691406 443.425781 1057.859375 409.503906 1057.859375 "/>
<path fill-rule="nonzero" fill="white" fill-opacity="1" d="M 594.066406 1120.449219 L 605.804688 1128.460938 L 605.804688 1136.191406 L 555.117188 1136.191406 L 555.117188 1128.460938 L 567.121094 1120.449219 L 567.121094 964.121094 L 556.984375 957.179688 L 556.984375 949.449219 L 604.203125 949.449219 L 604.203125 957.179688 L 594.066406 964.121094 L 594.066406 1120.449219 "/>
<path fill-rule="nonzero" fill="white" fill-opacity="1" d="M 773.867188 949.449219 L 773.867188 958.789062 L 712.238281 1119.921875 L 754.925781 1119.921875 L 763.996094 1092.980469 L 776.800781 1092.980469 L 775.46875 1136.191406 L 678.09375 1136.191406 L 678.09375 1128.460938 L 741.851562 965.460938 L 705.304688 965.460938 L 696.234375 992.671875 L 683.429688 992.671875 L 684.761719 949.449219 L 773.867188 949.449219 "/>
<path fill-rule="nonzero" fill="white" fill-opacity="1" d="M 942.460938 949.449219 L 942.460938 958.789062 L 880.839844 1119.921875 L 923.523438 1119.921875 L 932.59375 1092.980469 L 945.398438 1092.980469 L 944.0625 1136.191406 L 846.691406 1136.191406 L 846.691406 1128.460938 L 910.449219 965.460938 L 873.898438 965.460938 L 864.828125 992.671875 L 852.023438 992.671875 L 853.359375 949.449219 L 942.460938 949.449219 "/>
<path fill-rule="nonzero" fill="white" fill-opacity="1" d="M 1019.289062 1136.191406 L 1019.289062 1128.460938 L 1031.289062 1120.449219 L 1031.289062 963.320312 L 1021.148438 956.378906 L 1021.148438 949.449219 L 1116.128906 949.449219 L 1116.128906 991.328125 L 1102.789062 991.328125 L 1095.320312 965.191406 L 1059.039062 965.191406 L 1059.039062 1035.078125 L 1084.648438 1035.078125 L 1091.578125 1020.410156 L 1099.589844 1020.410156 L 1099.589844 1065.5 L 1091.578125 1065.5 L 1084.648438 1051.359375 L 1059.039062 1051.359375 L 1059.039062 1110.320312 C 1059.039062 1114.578125 1057.96875 1116.988281 1053.429688 1118.589844 L 1053.429688 1119.921875 L 1098.789062 1119.921875 L 1107.859375 1094.308594 L 1119.589844 1094.308594 L 1119.589844 1136.191406 L 1019.289062 1136.191406 "/>
<path fill-rule="nonzero" fill="white" fill-opacity="1" d="M 1233.769531 1043.890625 L 1250.839844 1043.890625 C 1268.71875 1043.890625 1275.648438 1034.019531 1275.648438 1016.941406 L 1275.648438 992.929688 C 1275.648438 975.859375 1269.519531 965.988281 1251.109375 965.988281 L 1233.769531 965.988281 Z M 1234.039062 1059.359375 L 1234.039062 1120.449219 L 1245.78125 1128.460938 L 1245.78125 1136.191406 L 1195.089844 1136.191406 L 1195.089844 1128.460938 L 1206.828125 1120.449219 L 1206.828125 964.121094 L 1196.949219 957.179688 L 1196.949219 949.449219 L 1251.109375 949.449219 C 1279.921875 949.449219 1303.398438 960.390625 1303.398438 992.929688 L 1303.398438 1016.941406 C 1303.398438 1039.890625 1290.589844 1052.691406 1273.25 1056.160156 C 1281.261719 1060.429688 1284.71875 1065.5 1287.660156 1073.769531 L 1300.199219 1108.179688 C 1302.871094 1115.378906 1307.671875 1125.789062 1316.199219 1123.921875 L 1316.199219 1134.328125 C 1310.871094 1136.988281 1302.601562 1137.800781 1296.730469 1137.800781 C 1279.921875 1137.800781 1278.320312 1125.789062 1272.988281 1111.648438 L 1259.921875 1077.5 C 1254.578125 1063.101562 1249.78125 1059.359375 1234.039062 1059.359375 "/>
<path fill-rule="nonzero" fill="white" fill-opacity="1" d="M 1424.511719 1120.449219 L 1436.238281 1128.460938 L 1436.238281 1136.191406 L 1385.558594 1136.191406 L 1385.558594 1128.460938 L 1397.558594 1120.449219 L 1397.558594 964.121094 L 1387.421875 957.179688 L 1387.421875 949.449219 L 1434.640625 949.449219 L 1434.640625 957.179688 L 1424.511719 964.121094 L 1424.511719 1120.449219 "/>
<path fill-rule="nonzero" fill="white" fill-opacity="1" d="M 1596.359375 1060.328125 L 1572.300781 956.398438 L 1572 956.398438 L 1547.941406 1060.328125 Z M 1544.859375 1126.628906 L 1544.859375 1136.191406 L 1502.609375 1136.191406 L 1502.609375 1126.628906 L 1513.710938 1120.769531 L 1562.128906 918.78125 L 1593.890625 918.78125 L 1643.539062 1119.851562 L 1654.648438 1126.628906 L 1654.648438 1136.191406 L 1599.75 1136.191406 L 1599.75 1128.179688 L 1610.851562 1121.390625 L 1600.679688 1077.910156 L 1543.929688 1077.910156 L 1533.75 1121.078125 L 1544.859375 1126.628906 "/>
<path fill-rule="nonzero" fill="white" fill-opacity="1" d="M 619.398438 1245.75 L 619.398438 1237.53125 L 628.25 1237.53125 L 628.25 1245.75 L 619.398438 1245.75 "/>
<path fill-rule="nonzero" fill="white" fill-opacity="1" d="M 690.355469 1266.761719 L 680.554688 1243.140625 L 688.875 1241.761719 L 697.195312 1260.421875 L 701.214844 1261.261719 L 701.214844 1266.761719 Z M 671.453125 1238.480469 L 680.304688 1238.480469 C 683.644531 1238.480469 686.109375 1237.808594 687.710938 1236.460938 C 689.308594 1235.109375 690.109375 1233.140625 690.109375 1230.550781 C 690.109375 1228.039062 689.332031 1226.03125 687.78125 1224.539062 C 686.230469 1223.050781 683.867188 1222.300781 680.695312 1222.300781 L 671.453125 1222.300781 Z M 656.964844 1266.761719 L 656.964844 1261.328125 L 662.570312 1260.28125 L 662.570312 1221.949219 L 656.964844 1220.890625 L 656.964844 1215.421875 L 680.695312 1215.421875 C 684.550781 1215.421875 687.839844 1216.019531 690.566406 1217.210938 C 693.292969 1218.390625 695.371094 1220.089844 696.808594 1222.300781 C 698.242188 1224.511719 698.960938 1227.179688 698.960938 1230.300781 C 698.960938 1233.308594 698.246094 1235.929688 696.824219 1238.171875 C 695.402344 1240.398438 693.417969 1242.128906 690.867188 1243.371094 C 688.316406 1244.601562 685.324219 1245.238281 681.894531 1245.289062 L 671.453125 1245.398438 L 671.453125 1260.28125 L 677.0625 1261.328125 L 677.0625 1266.761719 L 656.964844 1266.761719 "/>
<path fill-rule="nonzero" fill="white" fill-opacity="1" d="M 727.921875 1266.761719 L 727.921875 1261.328125 L 733.527344 1260.28125 L 733.527344 1221.949219 L 727.921875 1220.890625 L 727.921875 1215.421875 L 767.023438 1215.421875 L 767.023438 1228.648438 L 760.113281 1228.648438 L 759.511719 1222.269531 L 742.410156 1222.269531 L 742.410156 1236.789062 L 760.429688 1236.789062 L 760.429688 1243.671875 L 742.410156 1243.671875 L 742.410156 1259.988281 L 760.464844 1259.988281 L 761.066406 1253.46875 L 767.90625 1253.46875 L 767.90625 1266.761719 L 727.921875 1266.761719 "/>
<path fill-rule="nonzero" fill="white" fill-opacity="1" d="M 815.589844 1267.5 C 812.089844 1267.5 808.832031 1267.070312 805.824219 1266.199219 C 802.8125 1265.328125 799.886719 1263.878906 797.042969 1261.859375 L 797.042969 1250.050781 L 803.917969 1250.050781 L 805.046875 1257.699219 C 806.292969 1258.589844 807.828125 1259.308594 809.648438 1259.851562 C 811.472656 1260.390625 813.449219 1260.660156 815.589844 1260.660156 C 817.683594 1260.660156 819.4375 1260.359375 820.859375 1259.761719 C 822.28125 1259.160156 823.371094 1258.320312 824.125 1257.238281 C 824.875 1256.160156 825.253906 1254.878906 825.253906 1253.398438 C 825.253906 1252.039062 824.921875 1250.828125 824.265625 1249.769531 C 823.605469 1248.710938 822.511719 1247.761719 820.984375 1246.929688 C 819.457031 1246.101562 817.390625 1245.328125 814.777344 1244.621094 C 810.945312 1243.589844 807.746094 1242.359375 805.171875 1240.949219 C 802.597656 1239.539062 800.65625 1237.851562 799.351562 1235.878906 C 798.050781 1233.898438 797.398438 1231.570312 797.398438 1228.890625 C 797.398438 1226.140625 798.144531 1223.710938 799.636719 1221.601562 C 801.128906 1219.480469 803.203125 1217.808594 805.859375 1216.589844 C 808.515625 1215.371094 811.582031 1214.738281 815.0625 1214.71875 C 818.871094 1214.671875 822.238281 1215.171875 825.164062 1216.199219 C 828.089844 1217.230469 830.5625 1218.589844 832.585938 1220.25 L 832.585938 1231.289062 L 825.851562 1231.289062 L 824.582031 1224.101562 C 823.617188 1223.421875 822.363281 1222.839844 820.824219 1222.351562 C 819.285156 1221.871094 817.472656 1221.628906 815.378906 1221.628906 C 813.59375 1221.628906 812.015625 1221.921875 810.652344 1222.511719 C 809.289062 1223.101562 808.222656 1223.929688 807.445312 1225 C 806.671875 1226.070312 806.28125 1227.339844 806.28125 1228.820312 C 806.28125 1230.121094 806.621094 1231.238281 807.304688 1232.210938 C 807.984375 1233.171875 809.125 1234.050781 810.722656 1234.828125 C 812.320312 1235.621094 814.484375 1236.421875 817.214844 1237.21875 C 822.785156 1238.699219 827.003906 1240.738281 829.871094 1243.351562 C 832.738281 1245.960938 834.171875 1249.289062 834.171875 1253.328125 C 834.171875 1256.171875 833.402344 1258.660156 831.863281 1260.789062 C 830.324219 1262.910156 828.160156 1264.570312 825.375 1265.738281 C 822.589844 1266.921875 819.328125 1267.5 815.589844 1267.5 "/>
<path fill-rule="nonzero" fill="white" fill-opacity="1" d="M 872.902344 1266.761719 L 872.902344 1261.328125 L 878.507812 1260.28125 L 878.507812 1222.230469 L 868.175781 1222.230469 L 867.402344 1228.789062 L 860.738281 1228.789062 L 860.738281 1215.421875 L 905.199219 1215.421875 L 905.199219 1228.789062 L 898.5 1228.789062 L 897.726562 1222.230469 L 887.394531 1222.230469 L 887.394531 1260.28125 L 893 1261.328125 L 893 1266.761719 L 872.902344 1266.761719 "/>
<path fill-rule="nonzero" fill="white" fill-opacity="1" d="M 941.636719 1245.78125 L 956.128906 1245.78125 L 949.46875 1226.78125 L 949.007812 1225.398438 L 948.796875 1225.398438 L 948.304688 1226.851562 Z M 923.902344 1266.761719 L 923.902344 1261.328125 L 927.640625 1260.800781 L 944.636719 1215.421875 L 953.273438 1215.421875 L 970.058594 1260.800781 L 973.796875 1261.328125 L 973.796875 1266.761719 L 957.46875 1266.761719 L 957.46875 1261.328125 L 961.136719 1260.660156 L 958.421875 1252.589844 L 939.3125 1252.589844 L 936.527344 1260.660156 L 940.230469 1261.328125 L 940.230469 1266.761719 L 923.902344 1266.761719 "/>
<path fill-rule="nonzero" fill="white" fill-opacity="1" d="M 1022.261719 1267.5 C 1018.429688 1267.5 1015.03125 1266.800781 1012.070312 1265.410156 C 1009.109375 1264.011719 1006.800781 1261.988281 1005.140625 1259.359375 C 1003.480469 1256.730469 1002.648438 1253.539062 1002.648438 1249.800781 L 1002.648438 1221.949219 L 997.046875 1220.890625 L 997.046875 1215.421875 L 1017.109375 1215.421875 L 1017.109375 1220.890625 L 1011.5 1221.949219 L 1011.5 1249.800781 C 1011.5 1252.179688 1011.949219 1254.171875 1012.839844 1255.78125 C 1013.738281 1257.390625 1014.988281 1258.589844 1016.621094 1259.390625 C 1018.238281 1260.191406 1020.128906 1260.589844 1022.289062 1260.589844 C 1024.519531 1260.589844 1026.460938 1260.191406 1028.089844 1259.390625 C 1029.730469 1258.589844 1031 1257.398438 1031.898438 1255.800781 C 1032.808594 1254.199219 1033.261719 1252.199219 1033.261719 1249.800781 L 1033.261719 1221.949219 L 1027.648438 1220.890625 L 1027.648438 1215.421875 L 1047.710938 1215.421875 L 1047.710938 1220.890625 L 1042.140625 1221.949219 L 1042.140625 1249.800781 C 1042.140625 1253.589844 1041.308594 1256.800781 1039.660156 1259.429688 C 1038 1262.058594 1035.679688 1264.070312 1032.691406 1265.441406 C 1029.710938 1266.820312 1026.230469 1267.5 1022.261719 1267.5 "/>
<path fill-rule="nonzero" fill="white" fill-opacity="1" d="M 1106.929688 1266.761719 L 1097.128906 1243.140625 L 1105.449219 1241.761719 L 1113.769531 1260.421875 L 1117.789062 1261.261719 L 1117.789062 1266.761719 Z M 1088.03125 1238.480469 L 1096.878906 1238.480469 C 1100.21875 1238.480469 1102.691406 1237.808594 1104.289062 1236.460938 C 1105.878906 1235.109375 1106.679688 1233.140625 1106.679688 1230.550781 C 1106.679688 1228.039062 1105.910156 1226.03125 1104.359375 1224.539062 C 1102.800781 1223.050781 1100.441406 1222.300781 1097.269531 1222.300781 L 1088.03125 1222.300781 Z M 1073.539062 1266.761719 L 1073.539062 1261.328125 L 1079.140625 1260.28125 L 1079.140625 1221.949219 L 1073.539062 1220.890625 L 1073.539062 1215.421875 L 1097.269531 1215.421875 C 1101.121094 1215.421875 1104.410156 1216.019531 1107.140625 1217.210938 C 1109.871094 1218.390625 1111.949219 1220.089844 1113.378906 1222.300781 C 1114.820312 1224.511719 1115.53125 1227.179688 1115.53125 1230.300781 C 1115.53125 1233.308594 1114.820312 1235.929688 1113.398438 1238.171875 C 1111.980469 1240.398438 1109.988281 1242.128906 1107.441406 1243.371094 C 1104.890625 1244.601562 1101.898438 1245.238281 1098.46875 1245.289062 L 1088.03125 1245.398438 L 1088.03125 1260.28125 L 1093.640625 1261.328125 L 1093.640625 1266.761719 L 1073.539062 1266.761719 "/>
<path fill-rule="nonzero" fill="white" fill-opacity="1" d="M 1161.769531 1245.78125 L 1176.261719 1245.78125 L 1169.601562 1226.78125 L 1169.140625 1225.398438 L 1168.929688 1225.398438 L 1168.441406 1226.851562 Z M 1144.039062 1266.761719 L 1144.039062 1261.328125 L 1147.769531 1260.800781 L 1164.769531 1215.421875 L 1173.410156 1215.421875 L 1190.191406 1260.800781 L 1193.929688 1261.328125 L 1193.929688 1266.761719 L 1177.601562 1266.761719 L 1177.601562 1261.328125 L 1181.269531 1260.660156 L 1178.558594 1252.589844 L 1159.449219 1252.589844 L 1156.660156 1260.660156 L 1160.359375 1261.328125 L 1160.359375 1266.761719 L 1144.039062 1266.761719 "/>
<path fill-rule="nonzero" fill="white" fill-opacity="1" d="M 1219.820312 1266.761719 L 1219.820312 1261.328125 L 1225.429688 1260.28125 L 1225.429688 1221.949219 L 1219.820312 1220.890625 L 1219.820312 1215.421875 L 1234.421875 1215.421875 L 1257.96875 1252.910156 L 1258.191406 1252.839844 L 1258.191406 1221.949219 L 1251.699219 1220.890625 L 1251.699219 1215.421875 L 1271.800781 1215.421875 L 1271.800781 1220.890625 L 1266.191406 1221.949219 L 1266.191406 1266.761719 L 1257.761719 1266.761719 L 1233.648438 1229.421875 L 1233.429688 1229.460938 L 1233.429688 1260.28125 L 1239.921875 1261.328125 L 1239.921875 1266.761719 L 1219.820312 1266.761719 "/>
<path fill-rule="nonzero" fill="white" fill-opacity="1" d="M 1310.03125 1266.761719 L 1310.03125 1261.328125 L 1315.640625 1260.28125 L 1315.640625 1222.230469 L 1305.308594 1222.230469 L 1304.53125 1228.789062 L 1297.871094 1228.789062 L 1297.871094 1215.421875 L 1342.328125 1215.421875 L 1342.328125 1228.789062 L 1335.628906 1228.789062 L 1334.859375 1222.230469 L 1324.519531 1222.230469 L 1324.519531 1260.28125 L 1330.128906 1261.328125 L 1330.128906 1266.761719 L 1310.03125 1266.761719 "/>
<path fill-rule="nonzero" fill="white" fill-opacity="1" d="M 1371.75 1245.75 L 1371.75 1237.53125 L 1380.601562 1237.53125 L 1380.601562 1245.75 L 1371.75 1245.75 "/>
<path fill-rule="nonzero" fill="white" fill-opacity="1" d="M 1201.738281 631.730469 C 1196.699219 618.929688 1186.558594 603.960938 1172.648438 590.050781 C 1158.738281 576.140625 1143.769531 566 1130.96875 560.960938 C 1124.628906 558.46875 1117.410156 560.011719 1112.601562 564.828125 L 1049.140625 628.28125 C 1062.078125 656.210938 1056.21875 689.238281 1034.449219 711.011719 L 1000 745.460938 L 965.546875 711.011719 C 943.78125 689.238281 937.914062 656.210938 950.855469 628.28125 L 887.40625 564.828125 C 882.585938 560.011719 875.367188 558.46875 869.027344 560.960938 C 856.234375 566 841.261719 576.140625 827.351562 590.050781 C 813.441406 603.960938 803.300781 618.929688 798.261719 631.730469 C 795.765625 638.070312 797.308594 645.289062 802.128906 650.101562 L 865.578125 713.558594 C 893.507812 700.621094 926.539062 706.480469 948.304688 728.25 L 982.757812 762.699219 L 869.808594 875.648438 C 865.046875 880.410156 865.046875 888.128906 869.808594 892.890625 C 874.566406 897.648438 882.285156 897.648438 887.046875 892.890625 L 1000 779.941406 L 1112.949219 892.890625 C 1117.710938 897.648438 1125.429688 897.648438 1130.191406 892.890625 C 1134.949219 888.128906 1134.949219 880.410156 1130.191406 875.648438 L 1017.238281 762.699219 L 1051.691406 728.25 C 1073.460938 706.480469 1106.488281 700.621094 1134.421875 713.558594 L 1197.871094 650.101562 C 1202.691406 645.289062 1204.230469 638.070312 1201.738281 631.730469 "/>
<path fill-rule="nonzero" fill="white" fill-opacity="1" d="M 1082.558594 1463.660156 C 1071.851562 1485.191406 1054.320312 1486.800781 1054.320312 1486.800781 C 1054.320312 1486.800781 1063.699219 1484.171875 1071.878906 1465.039062 C 1079.910156 1446.261719 1071.621094 1421.390625 1071.621094 1421.390625 C 1069.128906 1435.941406 1059.089844 1450.070312 1054.578125 1455.339844 C 1068.210938 1420.210938 1046.578125 1387.179688 1046.578125 1387.179688 C 1047.570312 1399.300781 1043.25 1415.710938 1040.550781 1421.519531 C 1037.28125 1403.429688 1023.640625 1394.460938 1013.160156 1379.710938 C 990.351562 1347.589844 1009.488281 1319.019531 1009.488281 1319.019531 C 964.59375 1359.851562 991.6875 1396.96875 993.890625 1413.128906 C 996.644531 1433.320312 988.777344 1443.800781 988.777344 1443.800781 C 988.253906 1427.421875 977.136719 1411.710938 963.777344 1402.710938 C 943.753906 1389.21875 939.820312 1367.121094 939.820312 1367.121094 C 925.863281 1388.359375 952.449219 1418.238281 954.175781 1432.199219 C 956.636719 1452.128906 947.292969 1457.761719 947.292969 1457.761719 C 938.96875 1428.988281 917.210938 1418.898438 917.210938 1418.898438 C 917.210938 1418.898438 927.695312 1434.890625 919.046875 1478.140625 C 910.785156 1519.441406 949.453125 1544.988281 949.453125 1544.988281 C 931.234375 1507.640625 940.019531 1475.851562 940.019531 1475.851562 C 944.445312 1507.960938 965.183594 1521.53125 965.183594 1521.53125 C 952.769531 1486.660156 978.394531 1464.449219 978.394531 1464.449219 C 971.25 1490.339844 985.210938 1503.339844 985.210938 1503.339844 C 1013.128906 1486.730469 1018.441406 1452.058594 1018.441406 1452.058594 C 1023.351562 1475.058594 1018.660156 1484.109375 1015.910156 1497.871094 C 1013.160156 1511.628906 1021.808594 1525.859375 1021.808594 1525.859375 C 1044.21875 1526.121094 1053.070312 1501.019531 1053.070312 1501.019531 C 1056.019531 1516.421875 1037.539062 1544.988281 1037.539062 1544.988281 C 1088.660156 1521.070312 1082.558594 1463.660156 1082.558594 1463.660156 "/>
<path fill-rule="nonzero" fill="white" fill-opacity="1" d="M 526.617188 1448.839844 L 530.207031 1445.210938 L 534.640625 1448.179688 L 542.285156 1440.441406 L 549.878906 1412.070312 L 547.230469 1408.519531 L 550.847656 1404.859375 L 563.78125 1417.640625 L 560.167969 1421.300781 L 556.464844 1418.480469 L 550.945312 1436.820312 L 550.441406 1438.371094 L 550.582031 1438.421875 L 552.03125 1437.941406 L 570.84375 1432.679688 L 567.367188 1428.410156 L 570.984375 1424.75 L 583.664062 1437.28125 L 580.046875 1440.941406 L 576.347656 1438.210938 L 548.679688 1445.820312 L 540.5625 1454.039062 L 543.617188 1458.449219 L 540.027344 1462.089844 L 526.617188 1448.839844 "/>
<path fill-rule="nonzero" fill="white" fill-opacity="1" d="M 589.300781 1497.238281 C 591.585938 1499.058594 593.929688 1499.980469 596.339844 1499.988281 C 598.75 1500 601.148438 1499.238281 603.535156 1497.71875 C 605.921875 1496.199219 608.226562 1494.050781 610.445312 1491.269531 L 610.941406 1490.640625 C 613.136719 1487.890625 614.695312 1485.191406 615.625 1482.53125 C 616.550781 1479.878906 616.746094 1477.371094 616.203125 1475.019531 C 615.664062 1472.660156 614.25 1470.570312 611.96875 1468.75 C 609.785156 1467.019531 607.492188 1466.148438 605.085938 1466.148438 C 602.675781 1466.160156 600.273438 1466.898438 597.875 1468.378906 C 595.476562 1469.871094 593.179688 1471.980469 590.988281 1474.730469 L 590.488281 1475.359375 C 588.285156 1478.128906 586.714844 1480.859375 585.78125 1483.550781 C 584.851562 1486.25 584.660156 1488.769531 585.210938 1491.109375 C 585.757812 1493.460938 587.117188 1495.5 589.300781 1497.238281 Z M 585.164062 1502.429688 C 582.652344 1500.429688 580.761719 1498.148438 579.492188 1495.601562 C 578.21875 1493.039062 577.542969 1490.328125 577.464844 1487.46875 C 577.382812 1484.601562 577.886719 1481.691406 578.96875 1478.730469 C 580.054688 1475.78125 581.703125 1472.910156 583.925781 1470.121094 L 584.382812 1469.550781 C 586.585938 1466.78125 589.011719 1464.539062 591.648438 1462.828125 C 594.289062 1461.109375 597.019531 1459.96875 599.835938 1459.398438 C 602.652344 1458.828125 605.449219 1458.878906 608.222656 1459.550781 C 611 1460.21875 613.632812 1461.550781 616.125 1463.539062 C 618.703125 1465.589844 620.636719 1467.910156 621.925781 1470.480469 C 623.214844 1473.050781 623.894531 1475.761719 623.957031 1478.628906 C 624.019531 1481.5 623.503906 1484.398438 622.402344 1487.339844 C 621.300781 1490.28125 619.648438 1493.140625 617.441406 1495.910156 L 616.984375 1496.480469 C 614.765625 1499.261719 612.34375 1501.519531 609.722656 1503.25 C 607.097656 1504.980469 604.386719 1506.128906 601.582031 1506.691406 C 598.78125 1507.261719 595.984375 1507.199219 593.191406 1506.519531 C 590.398438 1505.828125 587.722656 1504.46875 585.164062 1502.429688 "/>
<path fill-rule="nonzero" fill="white" fill-opacity="1" d="M 644.25 1544.421875 C 641.199219 1542.5 638.847656 1540.238281 637.191406 1537.640625 C 635.535156 1535.039062 634.707031 1532.28125 634.707031 1529.351562 C 634.710938 1526.421875 635.648438 1523.46875 637.523438 1520.488281 L 651.507812 1498.308594 L 647.574219 1494.660156 L 650.316406 1490.308594 L 666.289062 1500.378906 L 663.546875 1504.730469 L 658.554688 1502.761719 L 644.570312 1524.929688 C 643.378906 1526.820312 642.734375 1528.640625 642.640625 1530.371094 C 642.542969 1532.101562 642.9375 1533.691406 643.828125 1535.140625 C 644.71875 1536.589844 646.023438 1537.851562 647.746094 1538.941406 C 649.523438 1540.058594 651.265625 1540.710938 652.96875 1540.898438 C 654.667969 1541.078125 656.28125 1540.761719 657.804688 1539.941406 C 659.324219 1539.128906 660.6875 1537.761719 661.890625 1535.851562 L 675.875 1513.679688 L 671.941406 1510.019531 L 674.683594 1505.671875 L 690.65625 1515.738281 L 687.914062 1520.089844 L 682.949219 1518.140625 L 668.96875 1540.308594 C 667.066406 1543.328125 664.796875 1545.46875 662.15625 1546.730469 C 659.515625 1547.988281 656.660156 1548.421875 653.59375 1548.019531 C 650.527344 1547.621094 647.414062 1546.421875 644.25 1544.421875 "/>
<path fill-rule="nonzero" fill="white" fill-opacity="1" d="M 717.410156 1583.621094 L 718.808594 1559.589844 L 726.421875 1561.839844 L 725.808594 1581.050781 L 728.863281 1583.421875 L 726.605469 1588.078125 Z M 713.019531 1551.910156 L 720.511719 1555.539062 C 723.339844 1556.910156 725.707031 1557.351562 727.617188 1556.871094 C 729.523438 1556.378906 731.011719 1555.039062 732.070312 1552.851562 C 733.105469 1550.71875 733.273438 1548.699219 732.570312 1546.800781 C 731.871094 1544.898438 730.175781 1543.300781 727.488281 1542 L 719.664062 1538.199219 Z M 689.132812 1569.898438 L 691.359375 1565.300781 L 696.542969 1566.710938 L 712.285156 1534.25 L 707.972656 1531.058594 L 710.21875 1526.429688 L 730.3125 1536.171875 C 733.578125 1537.761719 736.121094 1539.609375 737.941406 1541.738281 C 739.765625 1543.859375 740.828125 1546.148438 741.136719 1548.609375 C 741.441406 1551.070312 740.949219 1553.628906 739.667969 1556.28125 C 738.433594 1558.820312 736.753906 1560.75 734.632812 1562.058594 C 732.511719 1563.371094 730.117188 1564.019531 727.449219 1564.019531 C 724.78125 1564.011719 721.988281 1563.328125 719.0625 1561.960938 L 710.179688 1557.761719 L 704.066406 1570.359375 L 708.382812 1573.558594 L 706.152344 1578.160156 L 689.132812 1569.898438 "/>
<path fill-rule="nonzero" fill="white" fill-opacity="1" d="M 800.421875 1615.53125 L 801.851562 1610.628906 L 807.195312 1611.148438 L 817.234375 1576.78125 L 807.898438 1574.050781 L 805.46875 1579.769531 L 799.449219 1578.011719 L 802.972656 1565.941406 L 843.144531 1577.671875 L 839.617188 1589.738281 L 833.566406 1587.980469 L 834.59375 1581.851562 L 825.261719 1579.121094 L 815.226562 1613.488281 L 820.011719 1615.929688 L 818.578125 1620.828125 L 800.421875 1615.53125 "/>
<path fill-rule="nonzero" fill="white" fill-opacity="1" d="M 869.636719 1612.601562 L 883.046875 1615.101562 L 880.15625 1596.371094 L 879.96875 1595.011719 L 879.773438 1594.980469 L 879.066406 1596.230469 Z M 849.609375 1628.949219 L 850.546875 1623.929688 L 854.097656 1624.089844 L 877.644531 1585.03125 L 885.636719 1586.519531 L 893.34375 1631.398438 L 896.710938 1632.53125 L 895.773438 1637.558594 L 880.667969 1634.738281 L 881.605469 1629.71875 L 885.113281 1629.730469 L 883.992188 1621.789062 L 866.3125 1618.5 L 862.34375 1625.488281 L 865.652344 1626.75 L 864.714844 1631.769531 L 849.609375 1628.949219 "/>
<path fill-rule="nonzero" fill="white" fill-opacity="1" d="M 943.027344 1643.148438 C 938.398438 1642.78125 934.496094 1641.460938 931.324219 1639.179688 C 928.152344 1636.898438 925.8125 1633.898438 924.308594 1630.171875 C 922.804688 1626.449219 922.238281 1622.230469 922.609375 1617.511719 L 922.710938 1616.21875 C 923.089844 1611.390625 924.3125 1607.21875 926.375 1603.710938 C 928.4375 1600.199219 931.148438 1597.539062 934.507812 1595.71875 C 937.867188 1593.910156 941.675781 1593.179688 945.933594 1593.511719 C 949.507812 1593.789062 952.691406 1594.5 955.488281 1595.640625 C 958.28125 1596.78125 960.648438 1598.289062 962.589844 1600.148438 L 961.78125 1610.441406 L 955.394531 1609.929688 L 954.863281 1603.171875 C 953.949219 1602.359375 952.757812 1601.691406 951.292969 1601.160156 C 949.824219 1600.621094 948.097656 1600.269531 946.113281 1600.121094 C 943.402344 1599.898438 940.953125 1600.460938 938.777344 1601.789062 C 936.597656 1603.109375 934.832031 1605.058594 933.488281 1607.628906 C 932.144531 1610.199219 931.332031 1613.261719 931.050781 1616.808594 L 930.945312 1618.160156 C 930.671875 1621.671875 930.976562 1624.769531 931.863281 1627.460938 C 932.75 1630.148438 934.1875 1632.289062 936.183594 1633.890625 C 938.175781 1635.488281 940.683594 1636.410156 943.707031 1636.640625 C 945.625 1636.789062 947.332031 1636.75 948.824219 1636.511719 C 950.320312 1636.28125 951.605469 1635.929688 952.6875 1635.488281 L 953.433594 1625.988281 L 945.59375 1624.910156 L 946.0625 1618.988281 L 962.269531 1620.261719 L 960.765625 1639.378906 C 958.824219 1640.671875 956.394531 1641.699219 953.484375 1642.46875 C 950.570312 1643.238281 947.085938 1643.46875 943.027344 1643.148438 "/>
<path fill-rule="nonzero" fill="white" fill-opacity="1" d="M 989.242188 1644.578125 L 989.136719 1639.46875 L 994.390625 1638.359375 L 993.652344 1602.300781 L 988.355469 1601.410156 L 988.25 1596.269531 L 993.527344 1596.160156 L 1001.890625 1595.988281 L 1007.558594 1595.871094 L 1007.671875 1601.011719 L 1002.011719 1602.128906 L 1002.75 1637.890625 L 1017.839844 1637.578125 L 1018.261719 1630.269531 L 1024.660156 1630.140625 L 1024.941406 1643.839844 L 989.242188 1644.578125 "/>
<path fill-rule="nonzero" fill="white" fill-opacity="1" d="M 1051.96875 1641.828125 L 1051.449219 1636.75 L 1056.601562 1635.210938 L 1052.890625 1599.328125 L 1047.539062 1598.878906 L 1047.011719 1593.769531 L 1065.800781 1591.828125 L 1066.320312 1596.941406 L 1061.210938 1598.46875 L 1064.921875 1634.359375 L 1070.230469 1634.808594 L 1070.761719 1639.890625 L 1051.96875 1641.828125 "/>
<path fill-rule="nonzero" fill="white" fill-opacity="1" d="M 1098.171875 1636.460938 L 1097.171875 1631.449219 L 1102.148438 1629.441406 L 1095.101562 1594.070312 L 1089.730469 1594.121094 L 1088.71875 1589.078125 L 1093.898438 1588.050781 L 1102.199219 1586.390625 L 1130.828125 1616.660156 L 1131.019531 1616.550781 L 1125.328125 1588.039062 L 1119.148438 1588.261719 L 1118.148438 1583.21875 L 1131.519531 1580.550781 L 1136.699219 1579.519531 L 1137.699219 1584.558594 L 1132.71875 1586.570312 L 1140.96875 1627.941406 L 1133.191406 1629.488281 L 1104.058594 1599.460938 L 1103.871094 1599.53125 L 1109.539062 1627.96875 L 1115.71875 1627.761719 L 1116.71875 1632.769531 L 1098.171875 1636.460938 "/>
<path fill-rule="nonzero" fill="white" fill-opacity="1" d="M 1173.039062 1619.691406 L 1171.5 1614.820312 L 1176.21875 1612.269531 L 1165.308594 1577.890625 L 1159.980469 1578.539062 L 1158.421875 1573.628906 L 1193.5 1562.5 L 1197.269531 1574.359375 L 1191.070312 1576.328125 L 1188.710938 1570.78125 L 1173.371094 1575.640625 L 1177.511719 1588.679688 L 1193.671875 1583.550781 L 1195.628906 1589.710938 L 1179.46875 1594.839844 L 1184.109375 1609.488281 L 1200.308594 1604.351562 L 1198.988281 1598.328125 L 1205.128906 1596.378906 L 1208.910156 1608.300781 L 1173.039062 1619.691406 "/>
<path fill-rule="nonzero" fill="white" fill-opacity="1" d="M 1272.261719 1582.628906 L 1269.910156 1578.089844 L 1274.140625 1574.78125 L 1257.570312 1542.75 L 1252.421875 1544.289062 L 1250.058594 1539.71875 L 1266.859375 1531.03125 L 1269.21875 1535.589844 L 1265 1538.898438 L 1271.921875 1552.28125 L 1290.691406 1542.570312 L 1283.769531 1529.191406 L 1278.628906 1530.730469 L 1276.261719 1526.160156 L 1280.949219 1523.738281 L 1288.351562 1519.910156 L 1293.03125 1517.480469 L 1295.398438 1522.050781 L 1291.171875 1525.359375 L 1307.738281 1557.398438 L 1312.890625 1555.859375 L 1315.238281 1560.398438 L 1298.46875 1569.078125 L 1296.121094 1564.539062 L 1300.351562 1561.230469 L 1293.679688 1548.351562 L 1274.910156 1558.058594 L 1281.570312 1570.941406 L 1286.710938 1569.398438 L 1289.058594 1573.941406 L 1272.261719 1582.628906 "/>
<path fill-rule="nonzero" fill="white" fill-opacity="1" d="M 1339.25 1545.949219 L 1336.421875 1541.699219 L 1340.261719 1537.949219 L 1320.28125 1507.910156 L 1315.339844 1510.011719 L 1312.488281 1505.71875 L 1343.128906 1485.339844 L 1350.019531 1495.699219 L 1344.609375 1499.300781 L 1340.808594 1494.609375 L 1327.410156 1503.53125 L 1334.980469 1514.910156 L 1349.101562 1505.519531 L 1352.691406 1510.910156 L 1338.570312 1520.300781 L 1347.078125 1533.089844 L 1361.230469 1523.679688 L 1358.300781 1518.261719 L 1363.660156 1514.691406 L 1370.578125 1525.109375 L 1339.25 1545.949219 "/>
<path fill-rule="nonzero" fill="white" fill-opacity="1" d="M 1418.390625 1487.730469 L 1397.109375 1476.480469 L 1402.320312 1470.488281 L 1419.539062 1479.03125 L 1422.960938 1477.230469 L 1426.261719 1481.21875 Z M 1387.71875 1478.558594 L 1394.140625 1473.25 C 1396.558594 1471.25 1397.941406 1469.28125 1398.289062 1467.339844 C 1398.640625 1465.398438 1398.039062 1463.5 1396.480469 1461.621094 C 1394.980469 1459.800781 1393.210938 1458.808594 1391.191406 1458.660156 C 1389.171875 1458.5 1387.011719 1459.378906 1384.710938 1461.28125 L 1378.011719 1466.828125 Z M 1394.171875 1507.761719 L 1390.921875 1503.828125 L 1394.351562 1499.699219 L 1371.351562 1471.898438 L 1366.648438 1474.5 L 1363.371094 1470.53125 L 1380.578125 1456.300781 C 1383.378906 1453.988281 1386.121094 1452.441406 1388.808594 1451.671875 C 1391.5 1450.890625 1394.03125 1450.878906 1396.390625 1451.621094 C 1398.761719 1452.359375 1400.878906 1453.859375 1402.761719 1456.128906 C 1404.558594 1458.308594 1405.621094 1460.640625 1405.929688 1463.109375 C 1406.230469 1465.589844 1405.828125 1468.039062 1404.71875 1470.460938 C 1403.609375 1472.890625 1401.828125 1475.140625 1399.371094 1477.238281 L 1391.859375 1483.578125 L 1400.789062 1494.371094 L 1405.488281 1491.769531 L 1408.75 1495.710938 L 1394.171875 1507.761719 "/>
<path fill-rule="nonzero" fill="white" fill-opacity="1" d="M 1447.03125 1462.058594 L 1443.378906 1458.480469 L 1446.371094 1454.019531 L 1420.621094 1428.761719 L 1416.210938 1431.820312 L 1412.539062 1428.21875 L 1438.308594 1401.949219 L 1447.191406 1410.671875 L 1442.640625 1415.308594 L 1437.960938 1411.511719 L 1426.691406 1422.988281 L 1436.449219 1432.570312 L 1448.320312 1420.460938 L 1452.941406 1425 L 1441.058594 1437.101562 L 1452.03125 1447.859375 L 1463.929688 1435.730469 L 1459.949219 1431.03125 L 1464.449219 1426.441406 L 1473.378906 1435.199219 L 1447.03125 1462.058594 "/>
<path fill-rule="nonzero" fill="white" fill-opacity="1" d="M 526.65625 643.890625 L 522.628906 640.75 L 525.089844 635.96875 L 496.640625 613.789062 L 492.609375 617.339844 L 488.554688 614.179688 L 511.652344 584.550781 L 521.542969 592.269531 L 517.542969 597.390625 L 512.429688 594.078125 L 502.042969 607.398438 L 513.664062 616.460938 L 524.253906 602.878906 L 529.355469 606.859375 L 518.765625 620.441406 L 530.230469 629.378906 L 534.261719 625.828125 L 538.289062 628.96875 L 526.65625 643.890625 "/>
<path fill-rule="nonzero" fill="white" fill-opacity="1" d="M 586.90625 573.929688 L 564.519531 565.089844 L 569.035156 558.570312 L 587.097656 565.148438 L 590.300781 562.988281 L 594.019531 566.589844 Z M 555.414062 568.191406 L 561.210938 562.210938 C 563.394531 559.960938 564.554688 557.839844 564.6875 555.878906 C 564.820312 553.910156 564.011719 552.078125 562.261719 550.390625 C 560.5625 548.738281 558.699219 547.960938 556.675781 548.03125 C 554.652344 548.101562 552.597656 549.210938 550.519531 551.351562 L 544.472656 557.601562 Z M 565.042969 596.511719 L 561.375 592.949219 L 564.328125 588.46875 L 538.417969 563.378906 L 534.03125 566.46875 L 530.335938 562.890625 L 545.871094 546.851562 C 548.398438 544.238281 550.953125 542.410156 553.539062 541.339844 C 556.128906 540.28125 558.640625 539.980469 561.070312 540.460938 C 563.503906 540.941406 565.777344 542.199219 567.894531 544.25 C 569.925781 546.21875 571.230469 548.410156 571.8125 550.839844 C 572.390625 553.261719 572.261719 555.738281 571.425781 558.269531 C 570.589844 560.800781 569.066406 563.238281 566.851562 565.601562 L 560.085938 572.71875 L 570.148438 582.460938 L 574.53125 579.371094 L 578.203125 582.921875 L 565.042969 596.511719 "/>
<path fill-rule="nonzero" fill="white" fill-opacity="1" d="M 611.578125 550.410156 L 608.3125 546.480469 L 611.734375 542.339844 L 588.691406 514.589844 L 583.996094 517.191406 L 580.710938 513.230469 L 609.023438 489.71875 L 616.972656 499.300781 L 611.96875 503.449219 L 607.695312 499.191406 L 595.316406 509.46875 L 604.050781 519.988281 L 617.097656 509.160156 L 621.230469 514.140625 L 608.183594 524.96875 L 618 536.789062 L 631.070312 525.941406 L 627.582031 520.851562 L 632.535156 516.738281 L 640.527344 526.359375 L 611.578125 550.410156 "/>
<path fill-rule="nonzero" fill="white" fill-opacity="1" d="M 676.511719 501.589844 C 673.769531 503.421875 670.992188 504.789062 668.183594 505.679688 C 665.375 506.570312 662.328125 506.96875 659.046875 506.878906 L 652.871094 497.628906 L 658.253906 494.039062 L 663.132812 499.429688 C 664.578125 499.480469 666.152344 499.238281 667.859375 498.710938 C 669.570312 498.179688 671.257812 497.359375 672.933594 496.238281 C 674.570312 495.148438 675.789062 493.988281 676.589844 492.78125 C 677.386719 491.570312 677.800781 490.339844 677.824219 489.101562 C 677.847656 487.859375 677.472656 486.660156 676.695312 485.511719 C 675.984375 484.441406 675.09375 483.660156 674.027344 483.179688 C 672.957031 482.699219 671.605469 482.53125 669.976562 482.671875 C 668.34375 482.820312 666.320312 483.300781 663.910156 484.109375 C 660.371094 485.300781 657.226562 486.019531 654.472656 486.261719 C 651.722656 486.511719 649.320312 486.191406 647.269531 485.328125 C 645.214844 484.46875 643.484375 482.988281 642.085938 480.890625 C 640.648438 478.738281 639.960938 476.441406 640.019531 474.011719 C 640.085938 471.570312 640.832031 469.179688 642.273438 466.839844 C 643.714844 464.488281 645.789062 462.398438 648.5 460.558594 C 651.453125 458.53125 654.347656 457.160156 657.179688 456.441406 C 660.007812 455.71875 662.652344 455.480469 665.109375 455.730469 L 670.878906 464.371094 L 665.605469 467.890625 L 660.851562 462.921875 C 659.742188 462.898438 658.457031 463.089844 657.003906 463.519531 C 655.546875 463.949219 653.996094 464.710938 652.359375 465.808594 C 650.960938 466.738281 649.882812 467.789062 649.125 468.960938 C 648.363281 470.140625 647.960938 471.351562 647.910156 472.589844 C 647.863281 473.828125 648.226562 475.03125 649.003906 476.191406 C 649.679688 477.199219 650.535156 477.910156 651.570312 478.308594 C 652.609375 478.699219 653.960938 478.789062 655.621094 478.570312 C 657.285156 478.351562 659.394531 477.839844 661.945312 477.039062 C 667.078125 475.289062 671.449219 474.679688 675.058594 475.230469 C 678.667969 475.769531 681.527344 477.621094 683.640625 480.789062 C 685.128906 483.011719 685.824219 485.359375 685.734375 487.828125 C 685.640625 490.300781 684.8125 492.71875 683.246094 495.101562 C 681.683594 497.46875 679.433594 499.640625 676.511719 501.589844 "/>
<path fill-rule="nonzero" fill="white" fill-opacity="1" d="M 710.847656 478.988281 L 708.503906 474.449219 L 712.734375 471.140625 L 696.179688 439.089844 L 691.035156 440.628906 L 688.675781 436.058594 L 705.480469 427.378906 L 707.839844 431.949219 L 703.609375 435.261719 L 710.523438 448.640625 L 729.308594 438.941406 L 722.390625 425.558594 L 717.246094 427.089844 L 714.886719 422.519531 L 719.574219 420.101562 L 726.976562 416.28125 L 731.664062 413.859375 L 734.023438 418.429688 L 729.792969 421.730469 L 746.347656 453.78125 L 751.492188 452.25 L 753.839844 456.789062 L 737.058594 465.449219 L 734.714844 460.910156 L 738.945312 457.609375 L 732.292969 444.71875 L 713.507812 454.421875 L 720.164062 467.308594 L 725.308594 465.769531 L 727.652344 470.308594 L 710.847656 478.988281 "/>
<path fill-rule="nonzero" fill="white" fill-opacity="1" d="M 819.164062 410.808594 L 832.222656 406.859375 L 821.046875 391.550781 L 820.257812 390.441406 L 820.066406 390.488281 L 820.019531 391.929688 Z M 808.894531 434.53125 L 807.417969 429.640625 L 810.640625 428.148438 L 813.605469 382.640625 L 821.390625 380.289062 L 848.859375 416.601562 L 852.371094 416.058594 L 853.847656 420.960938 L 839.136719 425.398438 L 837.660156 420.511719 L 840.78125 418.910156 L 836.140625 412.371094 L 818.921875 417.570312 L 818.609375 425.601562 L 822.125 425.199219 L 823.601562 430.089844 L 808.894531 434.53125 "/>
<path fill-rule="nonzero" fill="white" fill-opacity="1" d="M 876.191406 415.609375 L 875.316406 410.578125 L 880.34375 408.691406 L 874.167969 373.148438 L 868.800781 373.078125 L 867.917969 368.011719 L 873.117188 367.109375 L 881.453125 365.660156 L 909.335938 396.621094 L 909.519531 396.519531 L 904.542969 367.871094 L 898.355469 367.941406 L 897.476562 362.871094 L 910.914062 360.539062 L 916.109375 359.628906 L 916.992188 364.699219 L 911.964844 366.578125 L 919.183594 408.140625 L 911.371094 409.5 L 882.988281 378.761719 L 882.800781 378.828125 L 887.765625 407.398438 L 893.953125 407.339844 L 894.828125 412.371094 L 876.191406 415.609375 "/>
<path fill-rule="nonzero" fill="white" fill-opacity="1" d="M 960.765625 397.640625 L 967.128906 397.289062 C 969.953125 397.140625 972.324219 396.25 974.242188 394.621094 C 976.15625 393 977.574219 390.859375 978.488281 388.210938 C 979.40625 385.550781 979.777344 382.601562 979.597656 379.351562 L 979.542969 378.359375 C 979.359375 375.019531 978.664062 372.101562 977.460938 369.578125 C 976.261719 367.070312 974.617188 365.128906 972.535156 363.761719 C 970.457031 362.390625 968.003906 361.78125 965.175781 361.941406 L 958.8125 362.289062 Z M 947.46875 404.828125 L 947.1875 399.71875 L 952.433594 398.398438 L 950.445312 362.480469 L 945.085938 361.71875 L 944.804688 356.578125 L 950.105469 356.289062 L 965.015625 355.460938 C 969.324219 355.230469 973.152344 356.03125 976.5 357.890625 C 979.847656 359.738281 982.527344 362.398438 984.535156 365.851562 C 986.542969 369.308594 987.675781 373.328125 987.925781 377.929688 L 987.980469 378.890625 C 988.230469 383.421875 987.570312 387.519531 986 391.179688 C 984.429688 394.851562 982.09375 397.789062 978.992188 400.011719 C 975.890625 402.230469 972.199219 403.460938 967.914062 403.699219 L 947.46875 404.828125 "/>
<path fill-rule="nonzero" fill="white" fill-opacity="1" d="M 1063.578125 399.511719 L 1069.910156 400.238281 C 1072.730469 400.570312 1075.210938 400.101562 1077.378906 398.828125 C 1079.539062 397.550781 1081.300781 395.691406 1082.660156 393.230469 C 1084.019531 390.769531 1084.878906 387.921875 1085.261719 384.691406 L 1085.371094 383.710938 C 1085.761719 380.390625 1085.578125 377.390625 1084.820312 374.699219 C 1084.058594 372.019531 1082.78125 369.828125 1080.960938 368.121094 C 1079.140625 366.421875 1076.828125 365.398438 1074.019531 365.070312 L 1067.691406 364.328125 Z M 1049.261719 404.308594 L 1049.851562 399.238281 L 1055.238281 398.828125 L 1059.410156 363.101562 L 1054.261719 361.429688 L 1054.859375 356.320312 L 1060.128906 356.941406 L 1074.96875 358.671875 C 1079.25 359.171875 1082.878906 360.621094 1085.871094 363.011719 C 1088.851562 365.410156 1091.039062 368.488281 1092.429688 372.230469 C 1093.820312 375.980469 1094.238281 380.140625 1093.710938 384.710938 L 1093.601562 385.671875 C 1093.070312 390.171875 1091.71875 394.101562 1089.550781 397.441406 C 1087.378906 400.78125 1084.578125 403.289062 1081.140625 404.949219 C 1077.710938 406.609375 1073.859375 407.191406 1069.601562 406.691406 L 1049.261719 404.308594 "/>
<path fill-rule="nonzero" fill="white" fill-opacity="1" d="M 1114.101562 413.25 L 1115.238281 408.269531 L 1120.609375 408.480469 L 1128.679688 373.320312 L 1123.761719 371.171875 L 1124.910156 366.160156 L 1160.78125 374.390625 L 1157.988281 386.519531 L 1151.648438 385.058594 L 1152.449219 379.078125 L 1136.761719 375.480469 L 1133.699219 388.808594 L 1150.230469 392.601562 L 1148.78125 398.910156 L 1132.261719 395.121094 L 1128.820312 410.089844 L 1145.378906 413.890625 L 1147.300781 408.03125 L 1153.578125 409.46875 L 1150.78125 421.671875 L 1114.101562 413.25 "/>
<path fill-rule="nonzero" fill="white" fill-opacity="1" d="M 1174.769531 428.53125 L 1176.429688 423.691406 L 1181.738281 424.460938 L 1193.429688 390.328125 L 1188.761719 387.679688 L 1190.429688 382.808594 L 1195.421875 384.519531 L 1203.328125 387.230469 L 1208.699219 389.070312 L 1207.03125 393.941406 L 1201.339844 393.039062 L 1189.75 426.890625 L 1204.039062 431.78125 L 1206.941406 425.050781 L 1213 427.128906 L 1208.550781 440.101562 L 1174.769531 428.53125 "/>
<path fill-rule="nonzero" fill="white" fill-opacity="1" d="M 1230.359375 449.050781 L 1232.429688 444.371094 L 1237.660156 445.601562 L 1252.28125 412.621094 L 1247.859375 409.578125 L 1249.949219 404.871094 L 1267.210938 412.53125 L 1265.128906 417.230469 L 1259.929688 416.019531 L 1245.308594 448.988281 L 1249.699219 452.03125 L 1247.621094 456.699219 L 1230.359375 449.050781 "/>
<path fill-rule="nonzero" fill="white" fill-opacity="1" d="M 1288.449219 478.460938 C 1284.300781 476.148438 1281.238281 473.289062 1279.269531 469.878906 C 1277.308594 466.46875 1276.429688 462.738281 1276.640625 458.691406 C 1276.851562 454.648438 1278.128906 450.519531 1280.480469 446.300781 L 1281.070312 445.230469 C 1283.359375 441.109375 1286.171875 437.890625 1289.480469 435.570312 C 1292.800781 433.25 1296.398438 431.980469 1300.300781 431.75 C 1304.199219 431.53125 1308.148438 432.53125 1312.148438 434.75 C 1314.949219 436.308594 1317.320312 438.171875 1319.261719 440.339844 C 1321.191406 442.5 1322.628906 444.828125 1323.570312 447.328125 L 1318.148438 457.078125 L 1312.578125 453.980469 L 1315.460938 447.03125 C 1315.078125 446.21875 1314.589844 445.429688 1314 444.671875 C 1313.410156 443.910156 1312.699219 443.191406 1311.878906 442.5 C 1311.058594 441.820312 1310.109375 441.171875 1309.03125 440.570312 C 1306.488281 439.160156 1303.96875 438.589844 1301.449219 438.871094 C 1298.929688 439.140625 1296.558594 440.160156 1294.339844 441.929688 C 1292.109375 443.710938 1290.128906 446.140625 1288.410156 449.238281 L 1287.789062 450.371094 C 1286 453.578125 1284.96875 456.621094 1284.691406 459.488281 C 1284.410156 462.359375 1284.871094 464.929688 1286.070312 467.21875 C 1287.261719 469.511719 1289.179688 471.378906 1291.808594 472.839844 C 1293.078125 473.550781 1294.429688 474.101562 1295.839844 474.5 C 1297.25 474.890625 1298.570312 475.109375 1299.789062 475.148438 L 1303.859375 469.671875 L 1309.371094 472.730469 L 1303.980469 482.421875 C 1301.769531 482.578125 1299.300781 482.339844 1296.589844 481.691406 C 1293.871094 481.039062 1291.160156 479.960938 1288.449219 478.460938 "/>
<path fill-rule="nonzero" fill="white" fill-opacity="1" d="M 1323.179688 498.710938 L 1326.050781 494.480469 L 1330.980469 496.621094 L 1351.261719 466.800781 L 1347.460938 463.011719 L 1350.351562 458.75 L 1365.96875 469.371094 L 1363.078125 473.621094 L 1358.179688 471.5 L 1337.890625 501.328125 L 1341.671875 505.101562 L 1338.789062 509.328125 L 1323.179688 498.710938 "/>
<path fill-rule="nonzero" fill="white" fill-opacity="1" d="M 1378.160156 531.960938 C 1380.410156 533.820312 1382.75 534.769531 1385.148438 534.820312 C 1387.558594 534.878906 1389.96875 534.160156 1392.390625 532.679688 C 1394.800781 531.199219 1397.128906 529.078125 1399.398438 526.328125 L 1399.910156 525.71875 C 1402.140625 523 1403.75 520.328125 1404.71875 517.691406 C 1405.691406 515.050781 1405.929688 512.539062 1405.421875 510.179688 C 1404.921875 507.820312 1403.539062 505.710938 1401.289062 503.851562 C 1399.140625 502.078125 1396.859375 501.171875 1394.449219 501.140625 C 1392.039062 501.101562 1389.628906 501.808594 1387.199219 503.25 C 1384.78125 504.691406 1382.449219 506.769531 1380.210938 509.488281 L 1379.710938 510.101562 C 1377.460938 512.828125 1375.839844 515.539062 1374.871094 518.21875 C 1373.890625 520.898438 1373.660156 523.410156 1374.171875 525.769531 C 1374.679688 528.121094 1376.011719 530.191406 1378.160156 531.960938 Z M 1373.941406 537.078125 C 1371.460938 535.039062 1369.609375 532.730469 1368.378906 530.160156 C 1367.148438 527.578125 1366.519531 524.859375 1366.480469 522 C 1366.449219 519.128906 1367 516.230469 1368.128906 513.289062 C 1369.261719 510.351562 1370.960938 507.511719 1373.230469 504.761719 L 1373.691406 504.199219 C 1375.941406 501.46875 1378.398438 499.261719 1381.070312 497.589844 C 1383.738281 495.921875 1386.488281 494.820312 1389.308594 494.300781 C 1392.140625 493.78125 1394.929688 493.871094 1397.699219 494.589844 C 1400.460938 495.308594 1403.070312 496.671875 1405.53125 498.699219 C 1408.070312 500.800781 1409.96875 503.140625 1411.21875 505.730469 C 1412.460938 508.320312 1413.101562 511.050781 1413.109375 513.921875 C 1413.128906 516.78125 1412.570312 519.679688 1411.421875 522.601562 C 1410.269531 525.53125 1408.570312 528.359375 1406.320312 531.089844 L 1405.851562 531.648438 C 1403.589844 534.398438 1401.128906 536.621094 1398.480469 538.300781 C 1395.828125 539.988281 1393.101562 541.089844 1390.289062 541.609375 C 1387.480469 542.140625 1384.679688 542.03125 1381.898438 541.300781 C 1379.121094 540.570312 1376.46875 539.171875 1373.941406 537.078125 "/>
<path fill-rule="nonzero" fill="white" fill-opacity="1" d="M 1423.640625 583.078125 C 1421.140625 580.488281 1419.390625 577.730469 1418.410156 574.808594 C 1417.421875 571.878906 1417.28125 569 1417.988281 566.160156 C 1418.691406 563.320312 1420.308594 560.679688 1422.839844 558.238281 L 1441.730469 540.058594 L 1438.789062 535.558594 L 1442.488281 532 L 1455.589844 545.601562 L 1451.878906 549.171875 L 1447.511719 546.058594 L 1428.621094 564.238281 C 1427.011719 565.789062 1425.949219 567.390625 1425.441406 569.050781 C 1424.929688 570.710938 1424.941406 572.339844 1425.449219 573.96875 C 1425.96875 575.589844 1426.929688 577.128906 1428.351562 578.601562 C 1429.800781 580.109375 1431.339844 581.160156 1432.949219 581.75 C 1434.550781 582.328125 1436.191406 582.410156 1437.871094 581.980469 C 1439.539062 581.550781 1441.191406 580.558594 1442.820312 578.988281 L 1461.710938 560.808594 L 1458.761719 556.320312 L 1462.46875 552.75 L 1475.570312 566.351562 L 1471.859375 569.921875 L 1467.511719 566.828125 L 1448.621094 585.011719 C 1446.050781 587.488281 1443.339844 589.019531 1440.46875 589.609375 C 1437.601562 590.210938 1434.730469 589.941406 1431.851562 588.808594 C 1428.96875 587.691406 1426.230469 585.78125 1423.640625 583.078125 "/>
<path fill-rule="nonzero" fill="white" fill-opacity="1" d="M 1466.441406 632.789062 C 1464.429688 630.179688 1462.890625 627.5 1461.808594 624.761719 C 1460.730469 622.011719 1460.121094 619 1460 615.71875 L 1468.808594 608.941406 L 1472.761719 614.058594 L 1467.699219 619.300781 C 1467.75 620.738281 1468.089844 622.300781 1468.738281 623.96875 C 1469.378906 625.640625 1470.308594 627.269531 1471.539062 628.859375 C 1472.738281 630.421875 1473.980469 631.558594 1475.238281 632.28125 C 1476.5 632.988281 1477.761719 633.320312 1478.988281 633.261719 C 1480.230469 633.199219 1481.398438 632.75 1482.511719 631.898438 C 1483.519531 631.109375 1484.238281 630.171875 1484.648438 629.070312 C 1485.058594 627.980469 1485.140625 626.621094 1484.878906 625 C 1484.628906 623.378906 1484.019531 621.398438 1483.039062 619.050781 C 1481.609375 615.589844 1480.691406 612.511719 1480.261719 609.78125 C 1479.828125 607.039062 1479.980469 604.628906 1480.710938 602.519531 C 1481.429688 600.410156 1482.789062 598.589844 1484.789062 597.050781 C 1486.839844 595.46875 1489.078125 594.628906 1491.519531 594.53125 C 1493.949219 594.429688 1496.390625 595.019531 1498.820312 596.300781 C 1501.261719 597.578125 1503.488281 599.511719 1505.5 602.089844 C 1507.71875 604.898438 1509.289062 607.691406 1510.199219 610.46875 C 1511.109375 613.25 1511.519531 615.871094 1511.441406 618.328125 L 1503.210938 624.671875 L 1499.339844 619.648438 L 1503.96875 614.570312 C 1503.929688 613.460938 1503.640625 612.191406 1503.121094 610.769531 C 1502.589844 609.351562 1501.730469 607.851562 1500.53125 606.289062 C 1499.5 604.960938 1498.378906 603.960938 1497.160156 603.269531 C 1495.941406 602.601562 1494.710938 602.269531 1493.460938 602.308594 C 1492.21875 602.339844 1491.050781 602.789062 1489.941406 603.640625 C 1488.980469 604.378906 1488.328125 605.28125 1488.011719 606.339844 C 1487.679688 607.410156 1487.679688 608.761719 1488.011719 610.398438 C 1488.339844 612.050781 1488.988281 614.121094 1489.960938 616.609375 C 1492.050781 621.609375 1492.949219 625.929688 1492.648438 629.570312 C 1492.359375 633.210938 1490.699219 636.191406 1487.679688 638.511719 C 1485.558594 640.140625 1483.269531 640.988281 1480.789062 641.070312 C 1478.320312 641.140625 1475.851562 640.480469 1473.371094 639.070312 C 1470.898438 637.671875 1468.589844 635.578125 1466.441406 632.789062 "/>
</svg>
